<svg width="31" height="48" viewBox="0 0 31 48" fill="none" xmlns="http://www.w3.org/2000/svg">
<path d="M5.61266 47.8507C4.83297 47.4844 4.49856 46.5557 4.86536 45.777C4.86536 45.7763 4.95582 45.5853 5.12306 45.2141C5.28948 44.842 5.53016 44.2973 5.81855 43.6155C6.39541 42.2501 7.1668 40.3332 7.93601 38.1423C9.47885 33.7701 10.9896 28.259 10.9789 24.057C10.9789 23.6083 10.963 23.1759 10.9288 22.7627C10.6567 19.2488 8.6364 14.8366 6.39133 11.1016C4.15524 7.35623 1.73421 4.2465 0.785106 3.07096C0.513524 2.73443 0.36977 2.56501 0.369021 2.56419C-0.187619 1.90738 -0.105192 0.923833 0.553206 0.368594C1.21154 -0.187393 2.19549 -0.105062 2.75213 0.552495C2.78031 0.586556 5.36149 3.6349 8.0588 7.86537C10.7464 12.1126 13.5995 17.4777 14.0383 22.5077C14.0794 23.0152 14.0989 23.5325 14.0989 24.057C14.0884 28.9464 12.4678 34.6268 10.8805 39.1737C9.28752 43.7099 7.70329 47.0724 7.68879 47.1043C7.42293 47.6689 6.86193 47.9994 6.27636 47.9994C6.05365 47.9994 5.82747 47.9515 5.61266 47.8507Z" fill="white"/>
<path d="M23.311 47.1041C23.2973 47.0721 21.7121 43.7103 20.1192 39.1734C18.531 34.6266 16.9104 28.9461 16.8997 24.0576C16.8997 23.5307 16.9199 23.0135 16.9614 22.5075C17.4005 17.4774 20.2541 12.1134 22.9414 7.86601C25.6395 3.63547 28.22 0.587128 28.2482 0.552319L28.2489 0.553067C28.805 -0.104491 29.7888 -0.186685 30.4474 0.36835C31.1047 0.924337 31.1878 1.90714 30.6313 2.56476C30.6313 2.56551 30.4866 2.735 30.2154 3.07146C29.9439 3.40704 29.552 3.90095 29.0796 4.52221C28.1343 5.76485 26.8622 7.51806 25.5737 9.53941C22.986 13.568 20.3775 18.7418 20.0712 22.7633C20.0373 23.178 20.0198 23.6105 20.0198 24.0575C20.0126 27.7303 21.1636 32.4174 22.4901 36.4526C23.8125 40.495 25.2922 43.913 25.8772 45.2137C26.0436 45.5858 26.1339 45.7767 26.1351 45.7775C26.5019 46.5563 26.1671 47.4841 25.3871 47.8512C25.1723 47.952 24.9468 48 24.7244 48C24.1386 47.9999 23.5767 47.6686 23.311 47.1041Z" fill="white"/>
<path d="M14.1455 13.8388L9.9529 6.5103C9.59052 5.87654 9.71508 5.08124 10.2534 4.58862L14.446 0.749738C15.0429 0.202521 15.9572 0.202521 16.554 0.749738L20.7466 4.58862C21.2848 5.08049 21.4093 5.87654 21.0471 6.5103L16.8544 13.8388C16.5779 14.3218 16.0573 14.6234 15.5001 14.6234C14.9433 14.6234 14.422 14.3217 14.1455 13.8388ZM13.2804 6.04487L15.4997 9.92481L17.7198 6.04412L15.5001 4.01169L13.2804 6.04487Z" fill="white"/>
</svg>
